<svg xmlns="http://www.w3.org/2000/svg" width="105" height="105" fill="none" viewBox="0 0 105 105"><circle cx="52.5" cy="52.5" r="52.5" style="fill:#41b653;fill-opacity:1;stroke:none;stroke-width:3.43559"/><g fill="#41B653"><path d="M34.293 52.303q1.381-.608 2.164-1.593l-1.773-2.153a4.6 4.6 0 0 1-.863.824q-.471.344-1.001.516-.53.171-1.128.172a3 3 0 0 1-1.658-.47 3.4 3.4 0 0 1-1.162-1.237q-.426-.768-.426-1.753 0-1.008.414-1.787A3.15 3.15 0 0 1 30 43.596q.725-.447 1.669-.447.598 0 1.162.207.564.206 1.048.561.483.355.805.79l1.796-2.153q-.759-1.054-2.118-1.65t-2.993-.596q-1.75 0-3.13.825a5.93 5.93 0 0 0-2.176 2.257q-.794 1.432-.794 3.22 0 1.81.794 3.23a5.95 5.95 0 0 0 2.176 2.245q1.38.825 3.13.825a7.2 7.2 0 0 0 2.924-.607m12.623-3.918q-.403.79-1.116 1.237a2.97 2.97 0 0 1-1.612.447q-.921 0-1.634-.447a3.15 3.15 0 0 1-1.128-1.237q-.414-.79-.392-1.776-.022-1.008.392-1.787a3.26 3.26 0 0 1 1.128-1.237q.713-.458 1.634-.458.898 0 1.612.446.713.447 1.116 1.237.403.791.403 1.8 0 .984-.403 1.775m2.866 1.478q.83-1.42.829-3.254 0-1.833-.829-3.242a6.06 6.06 0 0 0-2.29-2.234q-1.462-.825-3.304-.825-1.865 0-3.326.825a6.14 6.14 0 0 0-2.302 2.234q-.84 1.41-.84 3.242t.84 3.254a6.03 6.03 0 0 0 2.302 2.233q1.461.814 3.326.814 1.842 0 3.304-.814a5.95 5.95 0 0 0 2.29-2.233M33.918 62.23q.725-.448 1.67-.447.597 0 1.162.206.564.206 1.047.561.484.355.806.79l1.796-2.153q-.76-1.054-2.118-1.65t-2.993-.596q-1.75 0-3.13.825a5.93 5.93 0 0 0-2.176 2.257q-.795 1.432-.794 3.22 0 1.81.794 3.23a5.95 5.95 0 0 0 2.175 2.245q1.382.825 3.131.825a7.2 7.2 0 0 0 2.924-.607q1.38-.607 2.164-1.592l-1.773-2.154a4.6 4.6 0 0 1-.863.825q-.473.343-1.001.515-.531.172-1.128.172a3 3 0 0 1-1.658-.47 3.4 3.4 0 0 1-1.162-1.237q-.427-.767-.426-1.753 0-1.007.414-1.787t1.14-1.226m11.817-7.059h-3.27v16.144h3.27zm10.382 11.287q0 .505-.182.94-.183.435-.502.755a2.15 2.15 0 0 1-.775.493q-.456.172-.98.172-.73 0-1.231-.32a2.1 2.1 0 0 1-.776-.929q-.273-.607-.273-1.432v-6.943H48.16v7.47q0 1.535.513 2.624.513 1.087 1.46 1.672.945.584 2.268.584 1.026 0 1.915-.39a4.55 4.55 0 0 0 1.528-1.076c.131-.142.247-.291.356-.444v.012h-.004v1.67h3.159V59.192h-3.238zm14.584.63q-.39.792-1.07 1.236-.678.447-1.6.447-.921 0-1.611-.447a3 3 0 0 1-1.081-1.236q-.393-.79-.392-1.844-.001-1.031.392-1.833.39-.803 1.08-1.239.691-.434 1.612-.434.92 0 1.612.434.692.436 1.07 1.239.38.802.38 1.833 0 1.053-.392 1.844m.875-7.332q-1.243-.814-2.83-.814-.762 0-1.474.23a5.2 5.2 0 0 0-1.313.629 4.2 4.2 0 0 0-.898.802v.002l-.114.143V55.17h-3.154v16.1h3.085l.076-1.356q.382.43.913.77.622.4 1.38.63.763.23 1.567.23 1.566 0 2.797-.815 1.23-.811 1.944-2.233.714-1.421.714-3.253.001-1.835-.724-3.254t-1.969-2.234M61.402 48.488q-.39.802-1.082 1.26-.69.459-1.61.458-.922 0-1.6-.458a3.06 3.06 0 0 1-1.06-1.26q-.38-.801-.38-1.879 0-1.053.38-1.867.38-.813 1.06-1.26.678-.447 1.6-.447.92 0 1.61.447t1.082 1.26q.392.814.392 1.867 0 1.077-.392 1.879m.39 4.193h3.156V35.726h-3.27v6.117a5 5 0 0 0-.632-.55 5.2 5.2 0 0 0-1.428-.721 5.2 5.2 0 0 0-1.646-.264q-1.611 0-2.866.825-1.254.825-1.98 2.245-.724 1.422-.724 3.231 0 1.856.725 3.265t1.99 2.222q1.268.814 2.855.814.853 0 1.623-.24a5 5 0 0 0 1.382-.665q.484-.338.814-.74zm8.725-7.393c.166-.707.497-1.245.985-1.603a3.1 3.1 0 0 1 1.87-.593c.73 0 1.347.217 1.835.643.452.396.708.905.782 1.553zm8.132-2.076a5.6 5.6 0 0 0-2.137-2.127c-.906-.515-1.963-.777-3.14-.777-1.257 0-2.366.274-3.297.813a5.77 5.77 0 0 0-2.196 2.27c-.525.965-.79 2.079-.79 3.313 0 1.219.27 2.31.804 3.243a5.66 5.66 0 0 0 2.221 2.187c.937.515 2.025.776 3.234.776.968 0 1.849-.18 2.618-.535a5.6 5.6 0 0 0 1.954-1.47 5.75 5.75 0 0 0 1.135-2.077l.064-.212h-3.41l-.045.095a2.4 2.4 0 0 1-.878 1.006c-.39.255-.881.386-1.462.386-.776 0-1.445-.248-1.987-.737-.505-.454-.804-1.08-.89-1.86h8.911l.012-.153q.023-.31.036-.596.012-.285.012-.55c0-1.093-.26-2.101-.769-2.995" style="fill:#fafdfb;fill-opacity:1" transform="translate(.157 -1.568)"/><path d="m16.533 53.782-.42.288.42.283a9.7 9.7 0 0 1 1.46 1.24c.232.245.452.496.666.774 1.981 2.59 2.28 5.75 2.28 7.397v12.408c0 2.01 1.725 3.643 3.846 3.643h3.073v3.253h-3.073c-4.051 0-7.343-3.095-7.343-6.896l-.004-13.044c-.094-1.577-.532-3.786-2.07-5.383-1.25-1.294-3.105-1.981-5.52-2.046v-3.262c2.41-.06 4.265-.747 5.52-2.047 1.538-1.596 1.976-3.805 2.074-5.401V31.963c0-3.8 3.292-6.895 7.343-6.895h3.073v3.258h-3.073c-2.121 0-3.846 1.633-3.846 3.637v12.409c0 1.652-.299 4.807-2.28 7.396a9.4 9.4 0 0 1-2.126 2.014m78.307-1.345v3.262c-2.411.065-4.271.752-5.52 2.046-1.54 1.597-1.977 3.806-2.075 5.402v13.025c0 3.8-3.292 6.896-7.343 6.896h-3.073v-3.253h3.073c2.121 0 3.846-1.633 3.846-3.643V63.764c0-1.647.298-4.808 2.28-7.397a10 10 0 0 1 .667-.775c.433-.45.923-.868 1.459-1.239l.42-.283-.42-.288a9.4 9.4 0 0 1-2.126-2.014c-1.982-2.589-2.28-5.744-2.28-7.396V31.963c0-2.004-1.725-3.638-3.846-3.638h-3.073v-3.257h3.073c4.051 0 7.343 3.095 7.343 6.895v13.05c.098 1.572.536 3.781 2.074 5.377 1.25 1.295 3.105 1.987 5.52 2.047" style="fill:#fafdfb;fill-opacity:1" transform="translate(.157 -1.568)"/></g></svg>